<svg width="24" height="24" viewBox="0 0 24 24" fill="none" xmlns="http://www.w3.org/2000/svg">
<path d="M9.69012 3.29004L17.0401 10.6401C17.4101 11.0101 17.4101 11.61 17.0401 11.98L11.0201 18.0001C9.68012 19.3401 8.35012 19.3401 7.01012 18.0001L3.00012 13.9901C1.66012 12.6501 1.66012 11.32 3.00012 9.98004L7.31012 5.67004" stroke="#292D32" stroke-width="1.5" stroke-miterlimit="10" stroke-linecap="round" stroke-linejoin="round"/>
<path d="M8.34961 1.9502L9.68961 3.29016" stroke="#292D32" stroke-width="1.5" stroke-miterlimit="10" stroke-linecap="round" stroke-linejoin="round"/>
<path d="M2.07031 11.9197L17.1903 11.2598" stroke="#292D32" stroke-width="1.5" stroke-miterlimit="10" stroke-linecap="round" stroke-linejoin="round"/>
<path d="M3 22H10" stroke="#292D32" stroke-width="1.5" stroke-miterlimit="10" stroke-linecap="round" stroke-linejoin="round"/>
<path d="M13 22H16" stroke="#292D32" stroke-width="1.5" stroke-miterlimit="10" stroke-linecap="round" stroke-linejoin="round"/>
<path d="M18.85 15C18.85 15 17 17.01 17 18.24C17 19.26 17.83 20.09 18.85 20.09C19.87 20.09 20.7 19.26 20.7 18.24C20.7 17.01 18.85 15 18.85 15Z" stroke="#292D32" stroke-width="1.5" stroke-linecap="round" stroke-linejoin="round"/>
</svg>
