<svg width="24" height="23" viewBox="0 0 24 23" fill="none" xmlns="http://www.w3.org/2000/svg">
<path d="M15.4243 18.5581C14.9809 19.2488 14.185 19.5666 13.306 20.0419L11.8448 20.8368C8.16864 22.8079 5.92066 22.1299 3.93977 18.4555L1.9723 14.799C0.00124985 11.1229 0.667557 8.86684 4.34373 6.89579L5.8049 6.10093C6.18494 5.89953 6.5489 5.72139 6.90036 5.58619" stroke="#292D32" stroke-width="1.5" stroke-linecap="round" stroke-linejoin="round"/>
<path d="M20.3503 6.96141V15.1885C20.3503 17.72 18.8399 18.5638 16.9751 18.5638H10.2246C8.35978 18.5638 6.84937 17.72 6.84937 15.1885V6.96141C6.84937 4.21904 8.35978 3.58618 10.2246 3.58618C10.2246 4.10934 10.4355 4.58187 10.7815 4.92783C11.1274 5.27379 11.6 5.48475 12.1232 5.48475H15.0765C16.1228 5.48475 16.9751 4.6325 16.9751 3.58618C18.8399 3.58618 20.3503 4.21904 20.3503 6.96141Z" stroke="#292D32" stroke-width="1.5" stroke-linecap="round" stroke-linejoin="round"/>
<path d="M16.9751 3.58613C16.9751 4.63245 16.1228 5.4847 15.0765 5.4847H12.1232C11.6 5.4847 11.1275 5.27374 10.7815 4.92778C10.4355 4.58182 10.2246 4.10929 10.2246 3.58613C10.2246 2.53981 11.0769 1.68756 12.1232 1.68756H15.0765C15.5997 1.68756 16.0722 1.89852 16.4182 2.24448C16.7641 2.59044 16.9751 3.06297 16.9751 3.58613Z" stroke="#292D32" stroke-width="1.5" stroke-linecap="round" stroke-linejoin="round"/>
<path d="M10.2246 10.9694H13.5998" stroke="#292D32" stroke-width="1.5" stroke-linecap="round" stroke-linejoin="round"/>
<path d="M10.2246 14.3447H16.9751" stroke="#292D32" stroke-width="1.5" stroke-linecap="round" stroke-linejoin="round"/>
</svg>
