<svg width="24" height="24" viewBox="0 0 24 24" fill="none" xmlns="http://www.w3.org/2000/svg">
<path d="M14 6.19995V10C11.21 10.05 10.05 11.21 10 14H6.2C3.2 14 2 12.8 2 9.80005V6.19995C2 3.19995 3.2 2 6.2 2H9.8C12.8 2 14 3.19995 14 6.19995Z" stroke="#292D32" stroke-width="1.5" stroke-linecap="round" stroke-linejoin="round"/>
<path d="M6.95995 5.86996C6.42995 5.50996 5.72995 5.50998 5.19995 5.88998" stroke="#292D32" stroke-width="1.5" stroke-miterlimit="10" stroke-linecap="round" stroke-linejoin="round"/>
<path d="M10.9599 5.86996C10.4299 5.50996 9.72995 5.50998 9.19995 5.88998" stroke="#292D32" stroke-width="1.5" stroke-miterlimit="10" stroke-linecap="round" stroke-linejoin="round"/>
<path d="M8.16005 11.42H5.84005C5.54005 11.42 5.30005 11.18 5.30005 10.88C5.30005 9.39 6.51005 8.18005 8.00005 8.18005C8.64005 8.18005 9.23005 8.40002 9.69005 8.77002" stroke="#292D32" stroke-width="1.5" stroke-miterlimit="10" stroke-linecap="round" stroke-linejoin="round"/>
<path d="M22 14.2V17.8C22 20.8 20.8 22 17.8 22H14.2C11.2 22 10 20.8 10 17.8V14C10.05 11.21 11.21 10.05 14 10H17.8C20.8 10 22 11.2 22 14.2Z" stroke="#292D32" stroke-width="1.5" stroke-linecap="round" stroke-linejoin="round"/>
<path d="M14.9599 13.62C14.4299 13.98 13.73 13.98 13.2 13.6" stroke="#292D32" stroke-width="1.5" stroke-miterlimit="10" stroke-linecap="round" stroke-linejoin="round"/>
<path d="M18.9599 13.62C18.4299 13.98 17.73 13.98 17.2 13.6" stroke="#292D32" stroke-width="1.5" stroke-miterlimit="10" stroke-linecap="round" stroke-linejoin="round"/>
<path d="M13.84 16.1801H18.16C18.46 16.1801 18.7001 16.42 18.7001 16.72C18.7001 18.21 17.49 19.42 16 19.42C14.51 19.42 13.3 18.21 13.3 16.72C13.3 16.42 13.54 16.1801 13.84 16.1801Z" stroke="#292D32" stroke-width="1.5" stroke-miterlimit="10" stroke-linecap="round" stroke-linejoin="round"/>
</svg>
