<svg width="24" height="24" viewBox="0 0 24 24" fill="none" xmlns="http://www.w3.org/2000/svg">
<path d="M15.3902 5.21L16.8002 8.02999C16.9902 8.41999 17.5002 8.78999 17.9302 8.86999L20.4802 9.28999C22.1102 9.55999 22.4902 10.74 21.3202 11.92L19.3302 13.91C19.0002 14.24 18.8102 14.89 18.9202 15.36L19.4902 17.82C19.9402 19.76 18.9002 20.52 17.1902 19.5L14.8002 18.08C14.3702 17.82 13.6502 17.82 13.2202 18.08L10.8302 19.5C9.12018 20.51 8.08019 19.76 8.53019 17.82L9.1002 15.36C9.2102 14.9 9.0202 14.25 8.6902 13.91L6.70021 11.92C5.53021 10.75 5.9102 9.56999 7.5402 9.28999L10.0902 8.86999C10.5202 8.79999 11.0302 8.41999 11.2202 8.02999L12.6302 5.21C13.3802 3.68 14.6202 3.68 15.3902 5.21Z" stroke="#292D32" stroke-width="1.5" stroke-linecap="round" stroke-linejoin="round"/>
<path d="M7.99976 5H1.99976" stroke="#292D32" stroke-width="1.5" stroke-linecap="round" stroke-linejoin="round"/>
<path d="M4.99976 18.9999H1.99976" stroke="#292D32" stroke-width="1.5" stroke-linecap="round" stroke-linejoin="round"/>
<path d="M2.99976 12H1.99976" stroke="#292D32" stroke-width="1.5" stroke-linecap="round" stroke-linejoin="round"/>
</svg>
