<svg width="24" height="24" viewBox="0 0 24 24" fill="none" xmlns="http://www.w3.org/2000/svg">
<path d="M9 22H15C20 22 22 20 22 15V9C22 4 20 2 15 2H9C4 2 2 4 2 9V15C2 20 4 22 9 22Z" stroke="#292D32" stroke-width="1.5" stroke-linecap="round" stroke-linejoin="round"/>
<path d="M17.9001 9.04997C15.7201 8.82997 13.5201 8.71997 11.3301 8.71997C10.0301 8.71997 8.73009 8.78997 7.44009 8.91997L6.1001 9.04997" stroke="#292D32" stroke-width="1.5" stroke-linecap="round" stroke-linejoin="round"/>
<path d="M9.71021 8.39L9.8502 7.53C9.9502 6.91 10.0302 6.44 11.1402 6.44H12.8602C13.9702 6.44 14.0502 6.93 14.1502 7.53L14.2902 8.38" stroke="#292D32" stroke-width="1.5" stroke-linecap="round" stroke-linejoin="round"/>
<path d="M16.49 9.13L16.06 15.73C15.99 16.76 15.93 17.56 14.1 17.56H9.89C8.06 17.56 7.99999 16.76 7.92999 15.73L7.5 9.13" stroke="#292D32" stroke-width="1.5" stroke-linecap="round" stroke-linejoin="round"/>
</svg>
